<?xml version="1.0" encoding="UTF-8"?>
<svg version="1.1" xmlns="http://www.w3.org/2000/svg" width="500" height="500">
<path d="M0 0 C3.1275405 1.38685087 5.23312176 2.99244708 7.63183594 5.4206543 C8.67377106 6.46765755 8.67377106 6.46765755 9.73675537 7.53581238 C10.47846985 8.29098648 11.22018433 9.04616058 11.984375 9.82421875 C12.75879944 10.60384476 13.53322388 11.38347076 14.33111572 12.1867218 C16.80886979 14.68228362 19.27986043 17.18440278 21.75 19.6875 C24.20666521 22.17191732 26.66481455 24.65481747 29.1260376 27.13471985 C30.65602399 28.67681301 32.18333153 30.22157039 33.7074585 31.76945496 C37.03401649 35.12673195 40.38557411 38.38573276 43.96972656 41.46801758 C44.61460526 42.03825653 45.25948395 42.60849548 45.92390442 43.1960144 C47.4076941 44.48532653 48.92820568 45.73285942 50.47099304 46.95095825 C54.05916865 50.03282225 56.59519974 52.39413946 57.77322388 57.06741333 C58.03923716 60.67520419 58.01387887 64.17021651 57.87890625 67.78515625 C57.86617172 69.08198837 57.85343719 70.3788205 57.84031677 71.71495056 C57.80623242 75.13431957 57.71809735 78.55015198 57.61798096 81.96813965 C57.52528845 85.46720541 57.48467782 88.96685275 57.43945312 92.46679688 C57.34343082 99.31263513 57.19018822 106.15614705 57 113 C51.02970315 115.98514842 43.6749948 114 37 114 C37 97.17 37 80.34 37 63 C27.76 63 18.52 63 9 63 C9 79.83 9 96.66 9 114 C0.95808298 114.02095462 -7.08373549 114.04099182 -15.12565613 114.05175018 C-18.87040369 114.0570364 -22.61512872 114.06410353 -26.35986328 114.07543945 C-29.96489816 114.0862845 -33.56991116 114.09228028 -37.17496109 114.09487724 C-38.55210846 114.09672857 -39.92925459 114.1003436 -41.30639267 114.10573006 C-43.23143094 114.11296181 -45.15649112 114.11340824 -47.08154297 114.11352539 C-48.17852509 114.115746 -49.2755072 114.11796661 -50.4057312 114.12025452 C-53 114 -53 114 -55 113 C-55.23289017 105.48086879 -55.40997205 97.96211626 -55.51812172 90.44018745 C-55.57006449 86.94612356 -55.64035358 83.45454647 -55.75439453 79.96191406 C-55.88502977 75.93532144 -55.93256057 71.91129063 -55.9765625 67.8828125 C-56.02817535 66.64387238 -56.07978821 65.40493225 -56.13296509 64.12844849 C-56.1373581 57.26264395 -55.33388849 53.54490223 -50.43896484 48.56982422 C-48.65508151 47.01256615 -46.843041 45.48677245 -45 44 C-43.63967379 42.81191991 -42.28256489 41.62013923 -40.9296875 40.42358398 C-40.28612305 39.87137177 -39.64255859 39.31915955 -38.97949219 38.75021362 C-35.19978736 35.40830052 -31.67925575 31.80079687 -28.125 28.22265625 C-27.31506592 27.41130722 -26.50513184 26.59995819 -25.6706543 25.76402283 C-23.11138985 23.19920861 -20.5556447 20.63092052 -18 18.0625 C-16.25413867 16.31161717 -14.50804713 14.56096387 -12.76171875 12.81054688 C-8.50514802 8.54301384 -4.25145284 4.27263134 0 0 Z M-34 63 C-34 70.59 -34 78.18 -34 86 C-26.08 86 -18.16 86 -10 86 C-10 78.41 -10 70.82 -10 63 C-17.92 63 -25.84 63 -34 63 Z " fill="#000000" transform="translate(249,172)"/>
<path d="M0 0 C4.2857718 2.1428859 7.08686767 4.8124422 10.4050293 8.16210938 C11.0379892 8.79317093 11.6709491 9.42423248 12.3230896 10.07441711 C14.41171569 12.15934167 16.49305979 14.25137381 18.57421875 16.34375 C20.02305751 17.79378086 21.47226612 19.24344227 22.92182922 20.69274902 C25.95693564 23.72941915 28.98865321 26.76941908 32.01782227 29.81201172 C35.90681737 33.71801914 39.8023856 37.61738868 43.70027447 41.51451874 C46.69189945 44.50641518 49.68091455 47.50090727 52.6690464 50.49629211 C54.10501706 51.93545133 55.54159983 53.37400005 56.97879601 54.81193542 C58.98278221 56.81808191 60.98344526 58.82748186 62.9831543 60.83789062 C63.58107285 61.43535599 64.17899139 62.03282135 64.79502869 62.64839172 C69.82968355 67.72262662 69.82968355 67.72262662 70.375 71.8125 C70 75 70 75 67.9375 77.9375 C65 80 65 80 61.68736267 79.95729065 C57.34117739 78.82896049 55.08059634 76.89226277 52.06469727 73.74584961 C51.24386406 72.92633064 51.24386406 72.92633064 50.40644836 72.09025574 C48.61183214 70.29147904 46.83937548 68.47243897 45.06640625 66.65234375 C43.82219329 65.39693329 42.57664376 64.14284619 41.32981873 62.89002991 C38.0597075 59.59706462 34.80801866 56.28647996 31.55987549 52.97186279 C28.23903444 49.58952657 24.90103638 46.22421697 21.56445312 42.85742188 C15.02609086 36.2548073 8.50706958 29.63344641 2 23 C-1.8796183 24.57390548 -4.44307131 27.212241 -7.30004883 30.16821289 C-7.8160817 30.69359146 -8.33211456 31.21897003 -8.86378479 31.76026917 C-9.98115261 32.89859879 -11.09632725 34.03908448 -12.20954323 35.18147469 C-13.97408784 36.99013932 -15.74653124 38.79069185 -17.52165222 40.588974 C-22.56705211 45.70149375 -27.60418411 50.82192772 -32.62036133 55.96313477 C-35.69190013 59.11007363 -38.77797221 62.2421174 -41.87378502 65.36517143 C-43.04870088 66.55616995 -44.21804326 67.75269404 -45.38157082 68.95482063 C-47.01133461 70.63769427 -48.65896594 72.30097213 -50.31176758 73.96118164 C-50.78525635 74.45938416 -51.25874512 74.95758667 -51.74658203 75.47088623 C-55.26982543 78.95293343 -58.07449467 79.91687282 -63 80 C-66.31500554 77.67244292 -67.7038737 76.11047362 -68.75 72.1875 C-67.24966588 65.81107998 -61.63121214 61.38589924 -56.6328125 57.44921875 C-49.40723755 51.56482875 -43.85065133 46.68145789 -42.74609375 37.03125 C-42.45175533 31.22366707 -42.60489373 25.45953476 -43.04907227 19.6628418 C-42.99659518 16.81524213 -42.56812738 15.35438072 -41 13 C-38.17116253 11.58558126 -36.12623255 11.68099668 -33 12 C-30 16 -30 16 -29 29 C-19.43 19.43 -9.86 9.86 0 0 Z " fill="#000000" transform="translate(249,140)"/>
<path d="M0 0 C1.5 2.0625 1.5 2.0625 2 4 C0.68 4 -0.64 4 -2 4 C-2.33 3.67 -2.66 3.34 -3 3 C-5.45792029 2.66656449 -5.45792029 2.66656449 -8 3 C-10.31332486 6.46998729 -10.33957563 7.92509248 -10 12 C-9.01 13.485 -9.01 13.485 -8 15 C-4.91634129 15.2502157 -4.91634129 15.2502157 -2 15 C-1.67 13.68 -1.34 12.36 -1 11 C-2.65 11 -4.3 11 -6 11 C-6 10.01 -6 9.02 -6 8 C-3.36 8 -0.72 8 2 8 C2 11.3 2 14.6 2 18 C-7.15890142 19.34330554 -7.15890142 19.34330554 -11.0625 17.75 C-13.4076158 15.63183089 -13.90479215 13.99418968 -14.203125 10.87890625 C-14.3296219 4.62785123 -14.3296219 4.62785123 -12.6875 1.5 C-8.96022594 -1.81313249 -4.52144144 -1.30858132 0 0 Z " fill="#030303" transform="translate(263,300)"/>
<path d="M0 0 C8.22222222 0 8.22222222 0 13 2 C15.87787128 4.87787128 15.93998473 8.09150536 16 12 C14.97746157 15.91973067 14.43965202 16.70689866 11 19 C7.31619572 19.26655603 3.69863419 19.08702669 0 19 C0 12.73 0 6.46 0 0 Z M3 3 C3 7.62 3 12.24 3 17 C8.01535052 16.67039784 8.01535052 16.67039784 12 14 C12.27922749 11.06811139 12.47143881 8.84609353 12 6 C10.44202118 3.85217329 10.44202118 3.85217329 8 3 C6.35 3 4.7 3 3 3 Z " fill="#020202" transform="translate(175,299)"/>
<path d="M0 0 C4 0 8 0 12 0 C12.99 -0.061875 13.98 -0.12375 15 -0.1875 C15.99 -0.125625 16.98 -0.06375 18 0 C20.28062828 3.42094242 20.21925007 4.68187222 20.125 8.6875 C20.10695312 9.68136719 20.08890625 10.67523438 20.0703125 11.69921875 C20.04710937 12.45847656 20.02390625 13.21773438 20 14 C19.01 14 18.02 14 17 14 C16.505 9.05 16.505 9.05 16 4 C14.68 3.67 13.36 3.34 12 3 C11.67 6.63 11.34 10.26 11 14 C10.01 14 9.02 14 8 14 C7.67 10.37 7.34 6.74 7 3 C6.01 3.33 5.02 3.66 4 4 C3.67 7.3 3.34 10.6 3 14 C2.01 14 1.02 14 0 14 C0 9.38 0 4.76 0 0 Z " fill="#030303" transform="translate(220,304)"/>
<path d="M0 0 C0.66 0 1.32 0 2 0 C2.33 1.98 2.66 3.96 3 6 C4.093125 5.896875 5.18625 5.79375 6.3125 5.6875 C10 6 10 6 12 8.0625 C13.28178398 11.82774043 12.99286767 14.17036757 12 18 C10.76953125 19.73046875 10.76953125 19.73046875 9 21 C6.51953125 21.07421875 6.51953125 21.07421875 3.8125 20.6875 C2.91144531 20.56761719 2.01039063 20.44773437 1.08203125 20.32421875 C0.39496094 20.21722656 -0.29210937 20.11023438 -1 20 C-1.02888514 16.85418577 -1.04675923 13.70840531 -1.0625 10.5625 C-1.07087891 9.66466797 -1.07925781 8.76683594 -1.08789062 7.84179688 C-1.09111328 6.98779297 -1.09433594 6.13378906 -1.09765625 5.25390625 C-1.10551147 4.06776733 -1.10551147 4.06776733 -1.11352539 2.85766602 C-1 1 -1 1 0 0 Z M3.25 9.625 C1.63146767 12.06012772 1.63146767 12.06012772 2.8125 15.25 C3.204375 16.1575 3.59625 17.065 4 18 C5.65 17.67 7.3 17.34 9 17 C9.76716851 14.14921909 9.76716851 14.14921909 10 11 C8.81104764 9.05967596 8.81104764 9.05967596 7 8 C4.84624422 7.77318297 4.84624422 7.77318297 3.25 9.625 Z " fill="#030303" transform="translate(292,298)"/>
<path d="M0 0 C3.5625 0.1875 3.5625 0.1875 5.5625 2.1875 C5.7578125 4.5703125 5.7578125 4.5703125 5.6875 7.3125 C5.66945313 8.22257812 5.65140625 9.13265625 5.6328125 10.0703125 C5.60960937 10.76898438 5.58640625 11.46765625 5.5625 12.1875 C6.2225 12.1875 6.8825 12.1875 7.5625 12.1875 C7.2325 13.1775 6.9025 14.1675 6.5625 15.1875 C6.02625 15.001875 5.49 14.81625 4.9375 14.625 C2.43818026 14.0203253 2.43818026 14.0203253 -0.5625 14.75 C-1.985625 14.9665625 -1.985625 14.9665625 -3.4375 15.1875 C-5.4375 13.1875 -5.4375 13.1875 -5.5625 10.0625 C-5.52125 9.11375 -5.48 8.165 -5.4375 7.1875 C-2.53149739 5.93085022 -0.64145416 5.1875 2.5625 5.1875 C2.2325 4.5275 1.9025 3.8675 1.5625 3.1875 C-0.4175 3.5175 -2.3975 3.8475 -4.4375 4.1875 C-4.4375 -0.08869962 -4.33823476 0.23663099 0 0 Z M-1.4375 8.1875 C-1.7675 9.5075 -2.0975 10.8275 -2.4375 12.1875 C-1.1175 12.1875 0.2025 12.1875 1.5625 12.1875 C1.8925 10.8675 2.2225 9.5475 2.5625 8.1875 C1.2425 8.1875 -0.0775 8.1875 -1.4375 8.1875 Z " fill="#030303" transform="translate(312.4375,303.8125)"/>
<path d="M0 0 C2.17016137 1.59379057 2.89935753 2.49950773 3.43359375 5.15625 C3.44399361 11.39616868 3.44399361 11.39616868 1.4375 14.125 C-2.04906873 15.37658877 -4.45212472 14.91981952 -8 14 C-10.54393252 10.18410122 -10.57737956 7.4700353 -10 3 C-7.83160257 -1.08168929 -4.19435544 -0.44939523 0 0 Z M-4 2 C-4.99 2.66 -5.98 3.32 -7 4 C-7.41666667 7 -7.41666667 7 -7 10 C-6.34 10.66 -5.68 11.32 -5 12 C-2.21762345 11.59471099 -2.21762345 11.59471099 0 10 C0.04080783 8.00041636 0.04254356 5.99954746 0 4 C-1.32 3.34 -2.64 2.68 -4 2 Z " fill="#020202" transform="translate(285,304)"/>
<path d="M0 0 C2.84613268 2.84613268 2.79864424 5.04000344 3 9 C1.9375 11.875 1.9375 11.875 0 14 C-2.875 15.125 -2.875 15.125 -6 15 C-8.875 12.9375 -8.875 12.9375 -11 10 C-11.55014903 6.6303372 -11.3181446 4.75559341 -10 1.625 C-6.75462982 -1.01186327 -4.09787416 -0.39027373 0 0 Z M-6.625 3.1875 C-8.45422179 5.59874691 -8.37942388 7.04049371 -8 10 C-7.34 10.66 -6.68 11.32 -6 12 C-3.39719432 11.67958603 -3.39719432 11.67958603 -1 11 C-0.22197813 8.6984589 -0.22197813 8.6984589 0 6 C-1.19546354 3.6549514 -1.19546354 3.6549514 -3 2 C-5.06631217 1.8033278 -5.06631217 1.8033278 -6.625 3.1875 Z " fill="#020202" transform="translate(204,304)"/>
<path d="M0 0 C0.66 0 1.32 0 2 0 C2.33 5.61 2.66 11.22 3 17 C3.66 17.33 4.32 17.66 5 18 C4.67 18.99 4.34 19.98 4 21 C2.0625 20.625 2.0625 20.625 0 20 C-1.64838944 16.70322112 -1.14272738 13.05683956 -1.125 9.4375 C-1.12886719 8.64408203 -1.13273437 7.85066406 -1.13671875 7.03320312 C-1.12663067 1.12663067 -1.12663067 1.12663067 0 0 Z " fill="#040404" transform="translate(269,298)"/>
<path d="M0 0 C0.99 0 1.98 0 3 0 C3 5.94 3 11.88 3 18 C3.66 18 4.32 18 5 18 C5 18.99 5 19.98 5 21 C1.125 20.125 1.125 20.125 0 19 C-0.08651611 17.58429877 -0.10704904 16.164405 -0.09765625 14.74609375 C-0.09443359 13.89208984 -0.09121094 13.03808594 -0.08789062 12.15820312 C-0.07951172 11.26037109 -0.07113281 10.36253906 -0.0625 9.4375 C-0.05798828 8.53580078 -0.05347656 7.63410156 -0.04882812 6.70507812 C-0.03700225 4.46998686 -0.0205222 2.23502563 0 0 Z " fill="#020202" transform="translate(322,298)"/>
<path d="M0 0 C2.97 0 5.94 0 9 0 C9 0.99 9 1.98 9 3 C7.35 3 5.7 3 4 3 C3.67 6.63 3.34 10.26 3 14 C2.01 14 1.02 14 0 14 C0 9.38 0 4.76 0 0 Z " fill="#030303" transform="translate(209,304)"/>
</svg>
